<?xml version="1.0" encoding="UTF-8" standalone="no"?>
<svg
   width="44"
   height="44"
   fill="#37c964"
   class="bi bi-cpu"
   viewBox="0 0 16 16"
   aria-label="Controller CPU icon"
   role="img"
   version="1.1"
   id="svg1"
   sodipodi:docname="controller-recovery-icon.svg"
   inkscape:version="1.4.3 (0d15f75042, 2025-12-25)"
   xmlns:inkscape="http://www.inkscape.org/namespaces/inkscape"
   xmlns:sodipodi="http://sodipodi.sourceforge.net/DTD/sodipodi-0.dtd"
   xmlns="http://www.w3.org/2000/svg"
   xmlns:svg="http://www.w3.org/2000/svg">
  <defs
     id="defs1" />
  <sodipodi:namedview
     id="namedview1"
     pagecolor="#ffffff"
     bordercolor="#000000"
     borderopacity="0.25"
     inkscape:showpageshadow="2"
     inkscape:pageopacity="0.0"
     inkscape:pagecheckerboard="0"
     inkscape:deskcolor="#d1d1d1"
     inkscape:zoom="12.711852"
     inkscape:cx="10.895344"
     inkscape:cy="21.240022"
     inkscape:window-width="1920"
     inkscape:window-height="1011"
     inkscape:window-x="0"
     inkscape:window-y="0"
     inkscape:window-maximized="1"
     inkscape:current-layer="svg1" />
  <g
     id="g1"
     transform="matrix(1.0259805,0,0,1.0259805,-0.207844,0.8181365)"
     style="stroke-width:0.974679">
    <path
       d="M 6.5,3 A 0.25,0.25 0 0 1 6.75,3.25 V 4 h 0.5 V 3.25 a 0.25,0.25 0 0 1 0.5,0 V 4 h 0.5 V 3.25 a 0.25,0.25 0 0 1 0.5,0 V 4 h 0.5 V 3.25 a 0.25,0.25 0 0 1 0.5,0 V 4 A 1.25,1.25 0 0 1 11,5.25 h 0.75 a 0.25,0.25 0 0 1 0,0.5 H 11 v 0.5 h 0.75 a 0.25,0.25 0 0 1 0,0.5 H 11 v 0.5 h 0.75 a 0.25,0.25 0 0 1 0,0.5 H 11 v 0.5 h 0.75 a 0.25,0.25 0 0 1 0,0.5 H 11 A 1.25,1.25 0 0 1 9.75,10 v 0.75 a 0.25,0.25 0 0 1 -0.5,0 V 10 h -0.5 v 0.75 a 0.25,0.25 0 0 1 -0.5,0 V 10 h -0.5 v 0.75 a 0.25,0.25 0 0 1 -0.5,0 V 10 h -0.5 v 0.75 a 0.25,0.25 0 0 1 -0.5,0 V 10 A 1.25,1.25 0 0 1 5,8.75 H 4.25 a 0.25,0.25 0 0 1 0,-0.5 H 5 V 7.75 H 4.25 a 0.25,0.25 0 0 1 0,-0.5 H 5 V 6.75 H 4.25 a 0.25,0.25 0 0 1 0,-0.5 H 5 V 5.75 H 4.25 a 0.25,0.25 0 0 1 0,-0.5 H 5 A 1.25,1.25 0 0 1 6.25,4 V 3.25 A 0.25,0.25 0 0 1 6.5,3 M 6.25,4.5 A 0.75,0.75 0 0 0 5.5,5.25 v 3.5 A 0.75,0.75 0 0 0 6.25,9.5 h 3.5 A 0.75,0.75 0 0 0 10.5,8.75 V 5.25 A 0.75,0.75 0 0 0 9.75,4.5 Z M 6.5,6.25 A 0.75,0.75 0 0 1 7.25,5.5 h 1.5 A 0.75,0.75 0 0 1 9.5,6.25 v 1.5 A 0.75,0.75 0 0 1 8.75,8.5 H 7.25 A 0.75,0.75 0 0 1 6.5,7.75 Z M 7.25,6 A 0.25,0.25 0 0 0 7,6.25 v 1.5 A 0.25,0.25 0 0 0 7.25,8 h 1.5 A 0.25,0.25 0 0 0 9,7.75 V 6.25 A 0.25,0.25 0 0 0 8.75,6 Z"
       id="path1"
       style="stroke-width:0.974679" />
  </g>
  <g
     id="g3">
    <path
       d="m 12.789366,6.7531949 h 2.921287 c 0.244858,8.69e-5 0.378589,0.2856495 0.22188,0.4737919 l -1.460644,1.9159451 c -0.115496,0.1384977 -0.32825,0.1384977 -0.443747,0 L 12.5675,7.2269867 C 12.41079,7.0388447 12.544517,6.753283 12.789377,6.7531949"
       id="path1-5"
       style="stroke-width:0.363634"
       sodipodi:nodetypes="ccccccc" />
    <path
       fill-rule="evenodd"
       d="m 7.9999996,2.2220475 c -1.7934771,0 -3.3974359,0.8170019 -4.4571134,2.1008632 A 0.57779509,0.57779509 0 1 1 2.6519279,3.587957 6.9358522,6.9358522 0 0 1 14.837626,6.8444098 H 13.662394 A 5.7779509,5.7779509 0 0 0 7.9999996,2.2220475 M 2.3376078,9.1555878 A 5.7802623,5.7802623 0 0 0 12.457112,11.677086 0.57779509,0.57779509 0 1 1 13.348071,12.412044 6.9358522,6.9358522 0 0 1 1.1623732,9.1555878 Z"
       id="path2"
       style="stroke-width:0.363634" />
    <path
       d="M 3.2106349,9.2468053 H 0.28934619 C 0.04448874,9.2467183 -0.0892418,8.9611555 0.06746727,8.7730131 L 1.5281117,6.8570679 c 0.1154961,-0.1384975 0.3282504,-0.1384975 0.4437465,0 l 1.4606433,1.9159453 c 0.156709,0.188142 0.022978,0.4737041 -0.2218778,0.4737921"
       id="path3"
       style="stroke-width:0.363634"
       sodipodi:nodetypes="ccccccc" />
  </g>
</svg>
